PathFileType	3	(X/Y/Z)	C:\Users\koon_\Desktop\
DataRate	CameraRate	NumFrames	NumMarkers	Units	OrigDataRate	OrigDataStartFrame	OrigNumFrames
100.0	100.0	8	27	mm	100.0	1191	4762	
Frame#	Time	get:LFHD			get:RFHD			get:LBHD			get:RBHD			get:C7			get:T10			get:CLAV			get:STRN			get:RBAK			get:LSHO			get:LUPA			get:LELB			get:LFRA			get:LWRA			get:LWRB			get:LFIN			get:RSHO			get:RUPA			get:RELB			get:RFRA			get:RWRA			get:RWRB			get:RFIN			get:LASI			get:RASI			get:LPSI			get:RPSI			
		X1	Y1	Z1	X2	Y2	Z2	X3	Y3	Z3	X4	Y4	Z4	X5	Y5	Z5	X6	Y6	Z6	X7	Y7	Z7	X8	Y8	Z8	X9	Y9	Z9	X10	Y10	Z10	X11	Y11	Z11	X12	Y12	Z12	X13	Y13	Z13	X14	Y14	Z14	X15	Y15	Z15	X16	Y16	Z16	X17	Y17	Z17	X18	Y18	Z18	X19	Y19	Z19	X20	Y20	Z20	X21	Y21	Z21	X22	Y22	Z22	X23	Y23	Z23	X24	Y24	Z24	X25	Y25	Z25	X26	Y26	Z26	X27	Y27	Z27	
1191	11.9	103.15866	1553.5258	-22.137291	-37.789558	1553.6031	-30.438469	88.968987	1559.7043	-183.71153	-39.973564	1533.8816	-196.32774	56.244862	1335.3569	-211.97044	20.934706	1129.3058	-237.37337	47.727562	1281.7664	-16.028389	38.053158	1087.316	37.631073	-34.383972	1266.9685	-238.92899	181.10284	1340.3947	-132.92995	263.63553	1200.5454	-124.28731	288.48831	1007.9063	-142.34291	291.84232	880.96606	-73.675972	265.52637	800.27795	-58.776543	315.44595	805.20276	-129.11292	330.27414	734.72656	-58.095612	-50.470001	1362.2594	-142.39262	-190.4778	1413.6594	-115.61671	-314.26865	1449.7952	-86.343376	-233.36661	1485.2208	-103.64651	-120.2	1574.6704	-59.967545	-160.64101	1596.0093	5.7004743	-88.973267	1660.2032	-12.847109	159.83417	891.32416	-4.9498601	-106.91531	874.7926	-3.2255328	66.540886	944.24756	-220.47386	-22.885981	942.21069	-221.46599
1192	11.91	102.84459	1553.5992	-22.248865	-38.015434	1553.6069	-30.720741	88.884163	1559.7429	-183.87024	-40.010933	1533.8405	-196.58852	56.303776	1335.3969	-212.03099	20.826982	1129.3475	-237.3968	47.691288	1281.7673	-16.018194	37.969543	1087.3199	37.542412	-34.329208	1267.0757	-238.99216	181.07727	1340.3954	-132.91444	263.59329	1200.5366	-124.28145	288.45218	1007.9222	-142.34151	291.80002	880.92877	-73.815704	265.46106	800.20416	-59.043255	315.41577	805.20673	-129.33974	330.22223	734.65271	-58.351627	-50.281605	1362.4064	-142.3622	-189.39793	1414.4502	-115.0944	-313.09845	1451.7644	-86.501305	-231.62401	1486.9314	-100.47009	-118.13041	1574.3706	-54.156231	-158.89211	1593.826	12.336484	-85.087494	1657.0363	-2.9573236	159.78795	891.31537	-4.9697046	-106.95624	874.7569	-3.1867363	66.517075	944.2533	-220.51732	-22.947872	942.1814	-221.46278
1193	11.92	102.58342	1553.7238	-22.344212	-38.3288	1553.4019	-30.969126	88.806969	1559.7684	-183.96019	-39.99947	1533.8002	-196.99887	56.342304	1335.4067	-212.07201	20.768526	1129.4596	-237.51071	47.641975	1281.7643	-16.034058	37.840633	1087.3156	37.436665	-34.310642	1267.1371	-238.95613	181.06789	1340.3938	-132.91623	263.58023	1200.5227	-124.29842	288.38638	1007.9451	-142.43147	291.77151	880.87659	-73.934586	265.41373	800.16144	-59.256817	315.35895	805.1969	-129.51343	330.15494	734.5874	-58.658428	-50.080593	1362.5673	-142.24521	-188.35553	1415.1649	-114.6526	-311.81042	1453.7373	-86.603851	-229.73096	1488.2479	-97.272842	-116.38917	1573.7499	-49.380276	-156.91339	1591.1727	18.494854	-81.54689	1653.5793	5.8819423	159.73235	891.33026	-4.9836073	-106.99999	874.77783	-3.1875713	66.49453	944.25354	-220.53889	-22.960693	942.17773	-221.50302
1194	11.93	102.28582	1553.8435	-22.402401	-39.133678	1553.0922	-31.95496	88.739815	1559.7799	-184.07745	-40.059277	1533.7001	-197.32443	56.376614	1335.4907	-212.10742	20.681726	1129.5006	-237.51553	47.662613	1281.7469	-15.929975	37.715805	1087.2987	37.43911	-34.267948	1267.274	-238.89041	181.05518	1340.3855	-132.89664	263.52417	1200.5092	-124.29082	288.36798	1007.9392	-142.49214	291.68256	880.82898	-74.100723	265.3494	800.1087	-59.455349	315.3118	805.17969	-129.69321	330.08862	734.50085	-58.924934	-49.895462	1362.7415	-142.13229	-187.38274	1415.8812	-114.13538	-310.50409	1455.7031	-86.628662	-227.51852	1489.8582	-96.040413	-114.24858	1572.4845	-44.506622	-154.97963	1588.7184	24.447954	-78.240692	1649.8727	14.140898	159.67455	891.32684	-5.052804	-107.07415	874.78156	-3.2416887	66.518906	944.25916	-220.56688	-23.009218	942.20605	-221.56631
1195	11.94	102.05109	1554.0037	-22.526297	-39.503666	1553.4894	-32.480942	88.659836	1559.7913	-184.19742	-40.040272	1533.6139	-197.68623	56.389801	1335.4874	-211.98674	20.603821	1129.5597	-237.44096	47.65863	1281.7136	-15.915306	37.63866	1087.2894	37.358955	-34.254436	1267.3721	-238.73807	181.06905	1340.3798	-132.82188	263.5126	1200.4629	-124.35484	288.28369	1007.9109	-142.61185	291.61832	880.77594	-74.253181	265.26297	800.06586	-59.620743	315.21161	805.1416	-129.89891	329.9761	734.44037	-59.127163	-49.756718	1362.8953	-141.98012	-186.45522	1416.4899	-113.60474	-309.14792	1457.5365	-86.263359	-225.53925	1490.8822	-93.783264	-111.15713	1570.2107	-38.126282	-152.96678	1585.9364	29.578938	-74.954453	1645.9745	21.795584	159.6053	891.36182	-5.0422912	-107.12868	874.79919	-3.2495108	66.488846	944.29071	-220.64087	-23.024221	942.17407	-221.54076
1196	11.95	101.78938	1554.16	-22.613251	-39.794632	1553.5123	-32.819027	88.636833	1559.7787	-184.30164	-40.045132	1533.5487	-198.14493	56.417648	1335.5308	-211.89619	20.520435	1129.6216	-237.40189	47.697502	1281.6991	-15.872469	37.592983	1087.2581	37.278675	-34.226837	1267.5697	-238.76192	181.086	1340.343	-132.81526	263.46298	1200.4246	-124.36687	288.22351	1007.8452	-142.73282	291.5723	880.72034	-74.40593	265.2124	800.00555	-59.791332	315.11578	805.07886	-130.11301	329.86719	734.37085	-59.299183	-49.579357	1363.0161	-141.88591	-185.65831	1417.0013	-113.06702	-307.78281	1459.3241	-85.94902	-223.61237	1491.7118	-91.755272	-108.83163	1568.5201	-33.340679	-150.92477	1583.3324	33.567062	-71.539635	1641.783	28.988455	159.54066	891.3576	-5.0384207	-107.21892	874.82367	-3.4923882	66.450676	944.27234	-220.69913	-23.01351	942.18457	-221.62852
1197	11.96	101.51037	1554.3186	-22.707251	-38.892532	1553.1095	-31.783272	88.59478	1559.788	-184.41765	-40.059319	1533.4755	-198.43829	56.434826	1335.5948	-211.83882	20.427313	1129.7191	-237.41608	47.682148	1281.7192	-15.839469	37.528534	1087.2551	37.244255	-34.257149	1267.6969	-238.66733	181.08719	1340.3265	-132.72713	263.44949	1200.38	-124.40312	288.14362	1007.7965	-142.84804	291.4765	880.66785	-74.507751	265.11533	799.96021	-59.934212	314.95926	805.03131	-130.27939	329.78873	734.31287	-59.518497	-49.450191	1363.1396	-141.86102	-185.23466	1417.4996	-112.94637	-306.47507	1460.9272	-85.705849	-221.71831	1492.3638	-89.676849	-106.66285	1566.7511	-29.040962	-149.18082	1580.6984	38.91412	-68.0504	1637.4272	35.711529	159.41782	891.38672	-5.0464172	-107.31277	874.82727	-3.5750465	66.462608	944.28845	-220.73544	-23.017859	942.18518	-221.6757
1198	11.97	101.21757	1554.415	-22.723934	-39.946091	1553.7036	-33.074619	88.618172	1559.7661	-184.50375	-39.988308	1533.3835	-198.76015	56.490734	1335.6997	-211.8186	20.312326	1129.8032	-237.41742	47.740112	1281.675	-15.63343	37.450169	1087.231	37.214371	-34.233589	1267.8253	-238.66702	181.11624	1340.3131	-132.64815	263.39856	1200.3304	-124.42303	288.01715	1007.7517	-142.99492	291.38074	880.60425	-74.673416	265.00656	799.88824	-60.107079	314.79114	804.97101	-130.4951	329.66312	734.25281	-59.679695	-49.305557	1363.2441	-141.71294	-184.44499	1417.9353	-112.21866	-305.18451	1462.4786	-85.169357	-219.91151	1492.953	-87.786613	-104.59109	1565.0787	-25.063135	-147.13881	1578.0856	42.117653	-64.69812	1633.0635	41.780701	159.35475	891.3988	-5.0442996	-107.38978	874.84662	-3.6410542	66.431763	944.26929	-220.75558	-23.04343	942.17853	-221.67047
